 <!DOCTYPE svg PUBLIC "-//W3C//DTD SVG 1.1//EN" "http://www.w3.org/Graphics/SVG/1.1/DTD/svg11.dtd">
<svg id="a602d886-a3ae-49e0-baa2-4981acbdc7a5" data-name="Layer 1" xmlns="http://www.w3.org/2000/svg" width="865.76" height="682.89" viewBox="0 0 865.76 682.89">
<defs>
<style xmlns="http://www.w3.org/1999/xhtml">*, ::after, ::before { box-sizing: border-box; }
img, svg { vertical-align: middle; }
</style>
<style xmlns="http://www.w3.org/1999/xhtml">*, body, html { -webkit-font-smoothing: antialiased; }
img, svg { max-width: 100%; }
</style>
</defs>
<g id="aa2c08da-96f4-4111-a447-e1a8d9168165" data-name="freepik--background-simple--inject-1--inject-2">
<path d="M712.88,282.13c-55.16-25.25-104.37-63.21-149.09-103.77C508.35,128,465.89,52.14,391.34,27.47c-38-12.59-77.14-10.67-114.48.76-68.43,21-130.87,73.92-169.49,128.09C67.89,211.72,44.57,287.15,75.14,352c34.74,73.64,125.45,95.64,172.19,161.19,6.65,9.34,12.55,19.23,18.46,29.08L99.63,608.71l192.85,52.61,18.4-13.65c23.8,11.43,76.73,19.38,138.25,19.38,83.75,0,151.67-14.74,151.67-32.91,0-5.53-6.32-10.72-17.39-15.3,105.34-28,200.76-91.15,206.62-200.32C793.11,360.9,766.53,306.83,712.88,282.13Z" fill="#f1f2f2"/>
</g>
<g id="aa1d730a-ad04-483b-af32-6885e83e336e" data-name="freepik--Plants--inject-1--inject-2">
<path d="M619.34,186.59c6,2.62,20.7,2.3,20.7,2.3s-3.16-9.63-3.44-10.21c-3.22-6.76-13.41-18-21.72-16.77a10,10,0,0,0-8.19,11.52c0,.3.12.61.2.91C608.31,180.08,614.22,184.35,619.34,186.59Z" fill="#ccc"/>
<path d="M811.83,136.56c-8.32-.88-18.21,10.51-21.26,17.34-.26.6-3.32,10.29-3.16,10.29h.18c-1.58,1.8-3.24,3.74-5,5.88-3.26,4-6.92,8.55-10.53,13.78a172.31,172.31,0,0,0-10.93,17.38,127.63,127.63,0,0,0-9.37,21,1.13,1.13,0,0,0,0,.26c0-2.45,0-9.31-.14-9.85-1-7.41-7.18-21.16-15.41-22.67a10,10,0,0,0-11.34,8.42c0,.3-.07.59-.09.89-.48,6,3.8,11.79,8,15.5,4.69,4.2,17.74,8.25,18.78,8.57A171.13,171.13,0,0,0,746,246.11q-1.2,6.72-2,13.57a39,39,0,0,0-.1-4.3c-1-7.41-7.19-21.16-15.42-22.68a10,10,0,0,0-11.34,8.43c0,.29-.07.59-.09.88-.48,5.9,3.8,11.79,8,15.51s15.27,7.45,18.2,8.39c-.22,1.76-.46,3.5-.65,5.26-1,8.39-2,16.78-3.18,25-.42,2.88-.94,5.71-1.46,8.55V301c-1-7.42-7.17-21.18-15.4-22.7a10,10,0,0,0-11.34,8.43,6.4,6.4,0,0,0-.09.88c-.48,6,3.79,11.79,8,15.5s14.2,7.12,17.68,8.24c-.6,2.89-1.22,5.77-2,8.55-.54,1.88-.92,3.71-1.56,5.57s-1.19,3.7-1.77,5.52c-1.26,3.45-2.54,7-3.86,10.37-.88,2.33-1.78,4.53-2.68,6.75.46-2.86,1.22-8.51,1.24-9a38.51,38.51,0,0,0-5.17-18.7,11.56,11.56,0,0,0-.12-2.2,10,10,0,0,0-11.23-8.58c-.3,0-.6.1-.9.17-8.09,2.15-13.21,16.36-13.61,23.83,0,.44.28,5.24.5,8.27-.4-1.75-.78-3.47-1.22-5.27-.84-3.6-1.8-7.13-2.81-10.95-.54-1.84-1.1-3.68-1.66-5.53s-1.32-3.76-2-5.66c-1.6-4.37-3.44-8.73-5.4-13.08,3.14-.76,14.23-3.58,18.69-7s9.11-8.95,9.07-14.86a10,10,0,0,0-9.81-10.18c-.29,0-.59,0-.88,0-8.33.92-15.55,14.16-17.07,21.5,0,.44-.57,5.81-.79,8.79-1.2-2.62-2.36-5.22-3.66-7.82-3.72-7.49-7.71-15-11.67-22.43-1.22-2.28-2.4-4.58-3.6-6.86,1.12-.26,14.37-3.33,19.37-7.15,4.41-3.42,9.13-9,9.07-14.88a10,10,0,0,0-9.83-10.16c-.29,0-.58,0-.86,0-8.33.89-15.55,14.16-17.07,21.47-.12.56-.8,8.3-.9,10.27-2.61-5.05-5.17-10.11-7.51-15.18A173.84,173.84,0,0,1,647,225.87c.52,0,14.37-3.26,19.48-7.17,4.42-3.4,9.11-8.95,9.07-14.87a10,10,0,0,0-9.8-10.17,8.81,8.81,0,0,0-.89,0c-8.33.9-15.54,14.17-17.06,21.5-.12.56-.86,8.89-.9,10.41-.12-.42-.3-.84-.42-1.26a125,125,0,0,1-4.23-22.28c-.48-4.15-.68-8.17-.8-12,2.63-.32,14.66-2,19.66-4.94s10-8,10.65-13.79a10,10,0,0,0-8.65-11.17,8.31,8.31,0,0,0-.86-.07c-8.38,0-17,12.36-19.33,19.48-.12.38-1,4.45-1.53,7.43v-5.26c0-6.33.42-12.12.82-17.26.23-2.92.51-5.55.81-8,2.42-1.66,12.11-8.49,15.09-13.39s5.27-11.65,3.12-17.14A10,10,0,0,0,648.36,120a8.58,8.58,0,0,0-.83.35c-7.43,3.83-9.39,18.8-8.17,26.17.12.64,2.91,10.43,3,10.33l.14-.1c-.31,2.36-.63,4.89-.93,7.67-.52,5.14-1,11-1.2,17.3a173.43,173.43,0,0,0,.5,20.52,129.67,129.67,0,0,0,3.79,22.66v.26c-1.32-2-5.19-7.73-5.53-8.13-4.9-5.66-17.66-13.71-25.38-10.43a10,10,0,0,0-4.75,13.3c.11.24.23.46.36.69,2.85,5.17,9.67,7.73,15.2,8.53,6.22.92,19.34-2.9,20.38-3.2a179.22,179.22,0,0,0,8,22c1.8,4.17,3.76,8.31,5.76,12.45-1.2-1.74-2.28-3.3-2.46-3.5-4.87-5.65-17.66-13.71-25.37-10.43a10,10,0,0,0-4.73,13.31c.11.23.22.46.35.68,2.84,5.17,9.65,7.73,15.19,8.55s16.84-2.2,19.82-3c.78,1.58,1.53,3.16,2.33,4.74,3.8,7.55,7.64,15.08,11.15,22.59,1.24,2.64,2.36,5.28,3.5,8-1.06-1.56-2-2.86-2.12-3-4.89-5.66-17.68-13.71-25.37-10.43a10,10,0,0,0-4.75,13.3,7.24,7.24,0,0,0,.35.68c2.84,5.18,9.67,7.74,15.19,8.56s15.76-2,19.28-2.9c1.08,2.74,2.17,5.49,3.09,8.19.6,1.88,1.3,3.62,1.78,5.54s1,3.71,1.56,5.55c.86,3.58,1.76,7.27,2.52,10.79.54,2.44,1,4.75,1.48,7.11-1.2-2.64-3.68-7.77-4-8.17-4-6.33-15.38-16.22-23.52-14.17a10,10,0,0,0-6.74,12.42c.09.28.18.56.29.83,2,5.56,8.37,9.13,13.71,10.75,5.87,1.8,18.9.16,20.52,0,.77,4,1.49,7.69,2.11,11.27,2.2,12.43,3.56,22.88,4.4,30.17.16,1.3.28,2.46.4,3.56H673.34l9.19,179.52h42.94l9.21-179.52H711.21c.16-.36.34-.7.52-1.08,3.21-6.72,7.69-16.35,12.5-28.16,1.54-3.71,3.1-7.73,4.66-11.86,1.58.34,14.46,2.95,20.48,1.6,5.43-1.24,12-4.32,14.48-9.72a10,10,0,0,0-4.66-13.33,7.32,7.32,0,0,0-.81-.35c-8-2.66-20,6.35-24.5,12.37-.26.36-2.65,4.51-4.13,7.17.62-1.7,1.26-3.34,1.88-5.08,1.27-3.45,2.43-6.93,3.69-10.69l1.66-5.53c.6-1.84,1-3.86,1.5-5.79,1.08-4.54,2-9.18,2.72-14,3,1.12,13.82,4.87,19.42,4.48s12.56-2.44,15.78-7.4A10,10,0,0,0,773.84,290a7.39,7.39,0,0,0-.76-.47c-7.45-3.84-20.79,3.23-26.09,8.51-.32.34-3.7,4.53-5.51,6.89.44-2.84.9-5.65,1.26-8.53,1-8.29,1.81-16.72,2.63-25.13.24-2.58.54-5.16.8-7.72,1.08.4,13.81,5.16,20.08,4.72,5.58-.4,12.57-2.44,15.79-7.39a10,10,0,0,0-2.58-13.9c-.25-.17-.5-.32-.76-.47-7.43-3.84-20.78,3.24-26.07,8.51-.4.4-5.26,6.45-6.42,8,.6-5.65,1.26-11.27,2.12-16.8a172.06,172.06,0,0,1,4.83-22.1c.5.18,13.77,5.2,20.18,4.74,5.58-.38,12.57-2.44,15.79-7.4a10,10,0,0,0-2.59-13.88,6.89,6.89,0,0,0-.73-.46c-7.45-3.86-20.78,3.24-26.09,8.49-.42.42-5.62,7-6.5,8.21.14-.42.22-.88.34-1.3a129.39,129.39,0,0,1,8.76-20.92c2-3.71,4-7.17,6-10.49,2.38,1.18,13.31,6.5,19.12,6.72s12.75-1,16.5-5.62a10,10,0,0,0-1-14.08c-.22-.19-.45-.37-.68-.54-7-4.64-21,.92-26.86,5.59-.32.24-3.25,3.18-5.37,5.36.94-1.5,1.9-3,2.82-4.44,3.51-5.27,7-10,10.21-14,1.81-2.3,3.49-4.34,5.09-6.24,2.94,0,14.79-.42,20-2.84s10.85-6.81,12-12.58a10,10,0,0,0-7.72-11.84ZM719.66,360.22c-5,11.57-9.65,21-13,27.57-.66,1.34-1.26,2.5-1.82,3.58h-.56c-.16-1.28-.36-2.68-.56-4.26-1-7.37-2.61-17.88-5.09-30.37-.78-4-1.7-8.17-2.66-12.49a109.44,109.44,0,0,0,11.45-5.37c4.28,4.63,15.27,10,16.68,10.77C722.62,353.3,721.12,356.88,719.66,360.22Z" fill="#ccc"/>
<path d="M768,189.83c.12,0,2.68-9.77,2.76-10.41,1-7.42-1.32-22.32-8.87-26a10,10,0,0,0-13.15,5.17,8.36,8.36,0,0,0-.32.83c-2,5.55.54,12.36,3.58,17.06C755.52,182,768,189.81,768,189.83Z" fill="#ccc"/>
<g opacity="0.3">
<path d="M619.34,186.59c6,2.62,20.7,2.3,20.7,2.3s-3.16-9.63-3.44-10.21c-3.22-6.76-13.41-18-21.72-16.77a10,10,0,0,0-8.19,11.52c0,.3.12.61.2.91C608.31,180.08,614.22,184.35,619.34,186.59Z" fill="#ccc"/>
<path d="M811.83,136.56c-8.32-.88-18.21,10.51-21.26,17.34-.26.6-3.32,10.29-3.16,10.29h.18c-1.58,1.8-3.24,3.74-5,5.88-3.26,4-6.92,8.55-10.53,13.78a172.31,172.31,0,0,0-10.93,17.38,127.63,127.63,0,0,0-9.37,21,1.13,1.13,0,0,0,0,.26c0-2.45,0-9.31-.14-9.85-1-7.41-7.18-21.16-15.41-22.67a10,10,0,0,0-11.34,8.42c0,.3-.07.59-.09.89-.48,6,3.8,11.79,8,15.5,4.69,4.2,17.74,8.25,18.78,8.57A171.13,171.13,0,0,0,746,246.11q-1.2,6.72-2,13.57a39,39,0,0,0-.1-4.3c-1-7.41-7.19-21.16-15.42-22.68a10,10,0,0,0-11.34,8.43c0,.29-.07.59-.09.88-.48,5.9,3.8,11.79,8,15.51s15.27,7.45,18.2,8.39c-.22,1.76-.46,3.5-.65,5.26-1,8.39-2,16.78-3.18,25-.42,2.88-.94,5.71-1.46,8.55V301c-1-7.42-7.17-21.18-15.4-22.7a10,10,0,0,0-11.34,8.43,6.4,6.4,0,0,0-.09.88c-.48,6,3.79,11.79,8,15.5s14.2,7.12,17.68,8.24c-.6,2.89-1.22,5.77-2,8.55-.54,1.88-.92,3.71-1.56,5.57s-1.19,3.7-1.77,5.52c-1.26,3.45-2.54,7-3.86,10.37-.88,2.33-1.78,4.53-2.68,6.75.46-2.86,1.22-8.51,1.24-9a38.51,38.51,0,0,0-5.17-18.7,11.56,11.56,0,0,0-.12-2.2,10,10,0,0,0-11.23-8.58c-.3,0-.6.1-.9.17-8.09,2.15-13.21,16.36-13.61,23.83,0,.44.28,5.24.5,8.27-.4-1.75-.78-3.47-1.22-5.27-.84-3.6-1.8-7.13-2.81-10.95-.54-1.84-1.1-3.68-1.66-5.53s-1.32-3.76-2-5.66c-1.6-4.37-3.44-8.73-5.4-13.08,3.14-.76,14.23-3.58,18.69-7s9.11-8.95,9.07-14.86a10,10,0,0,0-9.81-10.18c-.29,0-.59,0-.88,0-8.33.92-15.55,14.16-17.07,21.5,0,.44-.57,5.81-.79,8.79-1.2-2.62-2.36-5.22-3.66-7.82-3.72-7.49-7.71-15-11.67-22.43-1.22-2.28-2.4-4.58-3.6-6.86,1.12-.26,14.37-3.33,19.37-7.15,4.41-3.42,9.13-9,9.07-14.88a10,10,0,0,0-9.83-10.16c-.29,0-.58,0-.86,0-8.33.89-15.55,14.16-17.07,21.47-.12.56-.8,8.3-.9,10.27-2.61-5.05-5.17-10.11-7.51-15.18A173.84,173.84,0,0,1,647,225.87c.52,0,14.37-3.26,19.48-7.17,4.42-3.4,9.11-8.95,9.07-14.87a10,10,0,0,0-9.8-10.17,8.81,8.81,0,0,0-.89,0c-8.33.9-15.54,14.17-17.06,21.5-.12.56-.86,8.89-.9,10.41-.12-.42-.3-.84-.42-1.26a125,125,0,0,1-4.23-22.28c-.48-4.15-.68-8.17-.8-12,2.63-.32,14.66-2,19.66-4.94s10-8,10.65-13.79a10,10,0,0,0-8.65-11.17,8.31,8.31,0,0,0-.86-.07c-8.38,0-17,12.36-19.33,19.48-.12.38-1,4.45-1.53,7.43v-5.26c0-6.33.42-12.12.82-17.26.23-2.92.51-5.55.81-8,2.42-1.66,12.11-8.49,15.09-13.39s5.27-11.65,3.12-17.14A10,10,0,0,0,648.36,120a8.58,8.58,0,0,0-.83.35c-7.43,3.83-9.39,18.8-8.17,26.17.12.64,2.91,10.43,3,10.33l.14-.1c-.31,2.36-.63,4.89-.93,7.67-.52,5.14-1,11-1.2,17.3a173.43,173.43,0,0,0,.5,20.52,129.67,129.67,0,0,0,3.79,22.66v.26c-1.32-2-5.19-7.73-5.53-8.13-4.9-5.66-17.66-13.71-25.38-10.43a10,10,0,0,0-4.75,13.3c.11.24.23.46.36.69,2.85,5.17,9.67,7.73,15.2,8.53,6.22.92,19.34-2.9,20.38-3.2a179.22,179.22,0,0,0,8,22c1.8,4.17,3.76,8.31,5.76,12.45-1.2-1.74-2.28-3.3-2.46-3.5-4.87-5.65-17.66-13.71-25.37-10.43a10,10,0,0,0-4.73,13.31c.11.23.22.46.35.68,2.84,5.17,9.65,7.73,15.19,8.55s16.84-2.2,19.82-3c.78,1.58,1.53,3.16,2.33,4.74,3.8,7.55,7.64,15.08,11.15,22.59,1.24,2.64,2.36,5.28,3.5,8-1.06-1.56-2-2.86-2.12-3-4.89-5.66-17.68-13.71-25.37-10.43a10,10,0,0,0-4.75,13.3,7.24,7.24,0,0,0,.35.68c2.84,5.18,9.67,7.74,15.19,8.56s15.76-2,19.28-2.9c1.08,2.74,2.17,5.49,3.09,8.19.6,1.88,1.3,3.62,1.78,5.54s1,3.71,1.56,5.55c.86,3.58,1.76,7.27,2.52,10.79.54,2.44,1,4.75,1.48,7.11-1.2-2.64-3.68-7.77-4-8.17-4-6.33-15.38-16.22-23.52-14.17a10,10,0,0,0-6.74,12.42c.09.28.18.56.29.83,2,5.56,8.37,9.13,13.71,10.75,5.87,1.8,18.9.16,20.52,0,.77,4,1.49,7.69,2.11,11.27,2.2,12.43,3.56,22.88,4.4,30.17.16,1.3.28,2.46.4,3.56H673.34l9.19,179.52h42.94l9.21-179.52H711.21c.16-.36.34-.7.52-1.08,3.21-6.72,7.69-16.35,12.5-28.16,1.54-3.71,3.1-7.73,4.66-11.86,1.58.34,14.46,2.95,20.48,1.6,5.43-1.24,12-4.32,14.48-9.72a10,10,0,0,0-4.66-13.33,7.32,7.32,0,0,0-.81-.35c-8-2.66-20,6.35-24.5,12.37-.26.36-2.65,4.51-4.13,7.17.62-1.7,1.26-3.34,1.88-5.08,1.27-3.45,2.43-6.93,3.69-10.69l1.66-5.53c.6-1.84,1-3.86,1.5-5.79,1.08-4.54,2-9.18,2.72-14,3,1.12,13.82,4.87,19.42,4.48s12.56-2.44,15.78-7.4A10,10,0,0,0,773.84,290a7.39,7.39,0,0,0-.76-.47c-7.45-3.84-20.79,3.23-26.09,8.51-.32.34-3.7,4.53-5.51,6.89.44-2.84.9-5.65,1.26-8.53,1-8.29,1.81-16.72,2.63-25.13.24-2.58.54-5.16.8-7.72,1.08.4,13.81,5.16,20.08,4.72,5.58-.4,12.57-2.44,15.79-7.39a10,10,0,0,0-2.58-13.9c-.25-.17-.5-.32-.76-.47-7.43-3.84-20.78,3.24-26.07,8.51-.4.4-5.26,6.45-6.42,8,.6-5.65,1.26-11.27,2.12-16.8a172.06,172.06,0,0,1,4.83-22.1c.5.18,13.77,5.2,20.18,4.74,5.58-.38,12.57-2.44,15.79-7.4a10,10,0,0,0-2.59-13.88,6.89,6.89,0,0,0-.73-.46c-7.45-3.86-20.78,3.24-26.09,8.49-.42.42-5.62,7-6.5,8.21.14-.42.22-.88.34-1.3a129.39,129.39,0,0,1,8.76-20.92c2-3.71,4-7.17,6-10.49,2.38,1.18,13.31,6.5,19.12,6.72s12.75-1,16.5-5.62a10,10,0,0,0-1-14.08c-.22-.19-.45-.37-.68-.54-7-4.64-21,.92-26.86,5.59-.32.24-3.25,3.18-5.37,5.36.94-1.5,1.9-3,2.82-4.44,3.51-5.27,7-10,10.21-14,1.81-2.3,3.49-4.34,5.09-6.24,2.94,0,14.79-.42,20-2.84s10.85-6.81,12-12.58a10,10,0,0,0-7.72-11.84ZM719.66,360.22c-5,11.57-9.65,21-13,27.57-.66,1.34-1.26,2.5-1.82,3.58h-.56c-.16-1.28-.36-2.68-.56-4.26-1-7.37-2.61-17.88-5.09-30.37-.78-4-1.7-8.17-2.66-12.49a109.44,109.44,0,0,0,11.45-5.37c4.28,4.63,15.27,10,16.68,10.77C722.62,353.3,721.12,356.88,719.66,360.22Z" fill="#ccc"/>
<path d="M768,189.83c.12,0,2.68-9.77,2.76-10.41,1-7.42-1.32-22.32-8.87-26a10,10,0,0,0-13.15,5.17,8.36,8.36,0,0,0-.32.83c-2,5.55.54,12.36,3.58,17.06C755.52,182,768,189.81,768,189.83Z" fill="#ccc"/>
</g>
</g>
<polygon points="292.48 661.32 89.31 458.2 322.61 328.81 486.67 545.25 292.48 661.32" fill="#2f2e41" data-secondary="true"/>
<polygon points="292.48 661.32 89.31 458.2 322.61 328.81 486.67 545.25 292.48 661.32" opacity="0.2" style="isolation:isolate"/>
<polygon points="460.94 507.87 275.18 623.25 91.3 423.57 277.06 308.17 460.94 507.87" fill="#bcbec0"/>
<polygon points="447.25 505.51 276.14 611.81 105.01 425.93 276.12 319.64 447.25 505.51" fill="#fff"/>
<path d="M329.47,377.6a52.24,52.24,0,0,0-13.25,15c-11.83,20.94,18.82,67.14,4.39,78.81s-65-12.63-81.91,15.6c-11.79,19.6-6.1,59.72-1.5,82.46l39,42.38L447.33,505.49Z" fill="#ccc"/>
<path d="M189.53,435.26c6.37,6.92,5.41,16.33-2.14,21s-18.82,2.88-25.2-4-5.43-16.35,2.12-21S183.15,428.33,189.53,435.26Z" fill="#ccc"/>
<polygon points="468.91 521.68 294.4 618.78 140.73 370.17 315.24 273.04 468.91 521.68" fill="#a7a9ac"/>
<polygon points="456.72 516.9 295.96 606.35 152.92 374.94 313.68 285.49 456.72 516.9" fill="#fff"/>
<path d="M358.28,357.64A47,47,0,0,0,345.43,372c-12,21.11,12.89,76.72-.84,87.25s-57.84-24.22-74.86,4c-11.83,19.63-9.14,64.62-6.38,90.31L296,606.27l160.76-89.45Z" fill="#a7a9ac"/>
<path d="M228.59,398.74c5.31,8.63,4,18.8-3.2,22.76s-17.16.16-22.5-8.46-4-18.82,3.2-22.75S223.25,390.05,228.59,398.74Z" fill="#a7a9ac"/>
<polygon points="472.76 432.23 290.2 542.74 198.64 278.78 381.19 168.27 472.76 432.23" fill="#bcbec0"/>
<polygon points="462.39 427.45 294.22 529.25 208.99 283.55 377.18 181.75 462.39 427.45" fill="#fff"/>
<path d="M403.75,258.38a67.91,67.91,0,0,0-14.94,15.88c-15.49,23.22-3.88,82.56-18.84,94.37s-48.82-24.36-70.55,6.75c-15.07,21.6-22,70.17-24.62,97.9l19.42,56,168.17-101.8Z" fill="#ccc"/>
<path d="M274.52,306.83c3.18,9.15-.28,20.22-7.69,24.72s-16,.69-19.18-8.46.26-20.2,7.67-24.69S271.34,297.66,274.52,306.83Z" fill="#ccc"/>
<polygon points="471.17 337.04 292.48 434.26 235.98 138.66 414.64 41.43 471.17 337.04" fill="#bcbec0"/>
<polygon points="462.15 330.63 297.58 420.2 244.97 145.05 409.57 55.5 462.15 330.63" fill="#fff"/>
<path d="M426.07,141.29a65.85,65.85,0,0,0-15.32,15.35c-16.61,23.16-12.13,88.53-27.06,99.48s-42.18-32.15-65.31-1.2c-16,21.48-27.3,73-32.69,102.56l12,62.72,164.57-89.57Z" fill="#bcbec0"/>
<path d="M302.57,178c2,10.25-2.33,21.76-9.59,25.71s-14.74-1.16-16.7-11.41,2.34-21.75,9.59-25.71S300.61,167.75,302.57,178Z" fill="#bcbec0"/>
<polygon points="323.51 372.92 292.48 661.32 486.67 545.25 544.77 262.87 393.36 353.34 395.34 336.04 323.51 372.92" fill="#2f2e41" data-secondary="true"/>
<polygon points="323.51 372.92 292.48 661.32 486.67 545.25 544.77 262.87 393.36 353.34 395.34 336.04 323.51 372.92" opacity="0.2" style="isolation:isolate"/>
<path d="M466.77,440.41s-7.17,8.71-7.17,14.35,24.08,51.59,32.79,69.57S537,596.1,534.93,601.21s-19,19.48-22,22,5.13,3.08,13.33,2,16.92-5.64,17.42-8.21a24.53,24.53,0,0,1,5.65-11.79c3.58-3.58,10.75-7.17,7.67-11.79s-9.73-3.06-12.8-8.19-15.39-25.12-22-48.69-4.62-32.81-11.27-47.16a135.1,135.1,0,0,0-18.46-27.67Z" fill="#f9b499"/>
<path d="M543.81,617.24a24.58,24.58,0,0,1,5.66-11.79c3.57-3.57,10.75-7.17,7.67-11.78-1.64-2.46-4.3-3.16-6.89-4a35.45,35.45,0,0,1-6.94,15.86s-3.59-5.11-8.21-4.09c-2,5.13-19,19.48-22,22s5.14,3.07,13.33,2S543.31,619.82,543.81,617.24Z" fill="#0071f2" data-primary="true"/>
<path d="M520.58,476.18s-16,32.8-19.48,44.07-29.21,73.29-35.36,88.67a185,185,0,0,1-12.81,26.14,101.34,101.34,0,0,1-24.1,6.67c-13.82,2-19,5.64-15.36,8.71s21.52,6.16,28.69,4.1,19.48-5.14,21-9.23a51.94,51.94,0,0,0,2-11.27s20-23.06,32.28-39.46,10.25-41.52,15.89-54.33S559,488.48,564.6,480.79,520.58,476.18,520.58,476.18Z" fill="#f9b499"/>
<path d="M575.92,280.86s-10.67,3.51-26.19,9.11-46.94,15.18-60,17.42-22,2.86-26.54,2.38-12.84-.3-15.16,2-3.38,2.73-4,4.21,6.76,4.32,17.27,2.32,44.19-3.64,65.47-10.17,50.41-13.81,50.41-13.81Z" fill="#f9b499"/>
<path d="M589.07,142.47c-15.23,2.82-28.75,10.95-35.05,26-7.69,18.44,11.27,19,16.41,30.23s-2.58,24.09-14.87,36-30.25,20.5-30.25,39.46,29.21,49.71,79.92,40.5,78.42-56.38,64.58-111.23c-4.14-16.4-10.31-34.1-23-46.27C632.11,143,608.69,138.86,589.07,142.47Z" fill="#2f2e41" data-secondary="true"/>
<path d="M564.27,334.08s-20.5,14.37-48.17,43.58-60.72,63.94-60.72,63.94,12.79,33.6,59.94,47.95,103.9,5.33,103.9,5.33,23-99.48,14.24-122.53-31.78-33.07-31.78-33.07S578.1,330.51,564.27,334.08Z" fill="#2f2e41" data-secondary="true"/>
<path d="M623.21,241.32s-14.34,10.24-30.25,21-23.51,14.45-24,24.1,5.57,26.65,3.51,31.25-13.32,12.83-9.21,20,44.84,4.27,44.84,4.27c11.76-12.81,16.3-29.07,26.39-43.23,13.33-19.46,12.81-40.48,8.71-48.17S631.87,236.2,623.21,241.32Z" fill="#0071f2" data-primary="true"/>
<path d="M608.09,341.93c11.76-12.81,16.3-29.05,26.39-43.21,13.33-19.46,12.81-40.48,8.71-48.17-3.65-6.86-9.77-12.87-17.22-10.45l1.44,2.81s11.59,9.85,5.79,30.69-45.75,37.07-45.75,37.07L606.55,324l-22,18.42C593.44,341.88,608.09,341.93,608.09,341.93Z" opacity="0.2" style="isolation:isolate"/>
<path d="M463.18,645.27a39.81,39.81,0,0,0,1.72-8,64.72,64.72,0,0,1-8.89,4.45c0-3.83-1.7-5.63-3.66-6.41a103.07,103.07,0,0,1-23.52,6.41c-13.82,2-19,5.64-15.36,8.71s21.52,6.16,28.69,4.1S461.64,649.36,463.18,645.27Z" fill="#0071f2" data-primary="true"/>
<path d="M635.32,259.76s-4.83-3.08-14.48.56-46.7,27.57-53.19,30.51-33.23,7.35-49.21,12.38-46,10.65-55.17,10.21-17-.24-21.58-.72-16,14.83-16.14,16.37c0,.56.58.86,1.38,1a6.23,6.23,0,0,0,4.89-1.4l7.28-5.9a54.68,54.68,0,0,0,10.55,2.64c4.59.48,13.88-4.73,13.88-4.73s31-.36,68.31-2.66,79.17-18,87.92-22.26a56.66,56.66,0,0,0,13.86-9.37" fill="#f9b499"/>
<path d="M639.74,261.77s-6.28-8.91-14.91-5.17-57.18,34.25-57.18,34.25l5.49,26.33s43.26-14.55,53.19-20.72a34.92,34.92,0,0,0,13.33-14S645.68,269.29,639.74,261.77Z" fill="#0071f2" data-primary="true"/>
<path d="M639.74,261.77s-6.28-8.91-14.91-5.17-57.18,34.25-57.18,34.25l5.49,26.33s43.26-14.55,53.19-20.72a34.92,34.92,0,0,0,13.33-14S645.68,269.29,639.74,261.77Z" opacity="0.2" style="isolation:isolate"/>
<path d="M603.21,228.51a48.31,48.31,0,0,1,2.68,16.38,35.41,35.41,0,0,1-3.6,13.33l21-16.92s-.52-5.64-1.53-14.87-1-13.31-1-13.31Z" fill="#f9b499"/>
<polygon points="625.25 234.14 601.67 255.16 596.56 268.49 633.46 241.31 625.25 234.14" fill="#0071f2" data-primary="true"/>
<polygon points="625.25 234.14 601.67 255.16 596.56 268.49 633.46 241.31 625.25 234.14" opacity="0.2" style="isolation:isolate"/>
<path d="M605,235.19l-1.09-4.52s11.53-4.61,16.79-10.35C620.7,220.32,618.34,228.59,605,235.19Z" fill="#f7a48b"/>
<path d="M598.72,232.1c6.92-.79,20.5-9.23,22-11.78a61.83,61.83,0,0,0,3-6.16S593,191.1,596.56,168.55c0,0-10.77,5.63-13.85,13.82a42.55,42.55,0,0,0-2.32,11.47S572.82,235.06,598.72,232.1Z" fill="#f9b499"/>
</svg>