<svg id="Camada_1" data-name="Camada 1" xmlns="http://www.w3.org/2000/svg" xmlns:xlink="http://www.w3.org/1999/xlink" viewBox="0 0 842.53 531.15"><defs><style>.cls-1{fill:#f5d100;}.cls-2{fill:#eb8175;}.cls-3{fill:#ebebff;}.cls-4{fill:#d6d7f4;}.cls-5{fill:#3d5ac4;}.cls-10,.cls-6{fill:#5571e9;}.cls-7{fill:#27429c;}.cls-8{fill:#312c76;}.cls-9{fill:#151247;}.cls-10{opacity:0.16;}.cls-11{clip-path:url(#clip-path);}.cls-12{fill:#fff;}.cls-13{fill:#14103d;}.cls-14{fill:#231c61;}.cls-15{fill:#e1ad9d;}.cls-16{fill:#c8c6f2;}.cls-17{fill:#d8d7fd;}.cls-18{fill:#091218;}.cls-19{fill:#1b2934;}.cls-20{fill:#e16c5f;}.cls-21{clip-path:url(#clip-path-2);}.cls-22,.cls-23,.cls-27,.cls-28,.cls-29,.cls-30,.cls-32,.cls-33,.cls-35,.cls-40{fill:none;}.cls-22,.cls-27{stroke:#f1ab00;}.cls-22,.cls-27,.cls-29,.cls-30,.cls-32,.cls-33{stroke-miterlimit:10;}.cls-22{stroke-width:0.28px;}.cls-23,.cls-28{stroke:#fff;}.cls-23,.cls-28,.cls-35,.cls-40{stroke-linecap:round;stroke-linejoin:round;}.cls-23{stroke-width:1.12px;}.cls-24{fill:#334fbe;}.cls-25{fill:#4265d1;}.cls-26{clip-path:url(#clip-path-3);}.cls-27{stroke-width:0.28px;}.cls-28{stroke-width:1.13px;}.cls-29,.cls-40{stroke:#3d5ac4;}.cls-29,.cls-30,.cls-35{stroke-width:2.65px;}.cls-30,.cls-35{stroke:#5571e9;}.cls-31{fill:#2f4dab;}.cls-32,.cls-33{stroke:#231c61;}.cls-32{stroke-width:2.16px;}.cls-33{stroke-width:1.11px;}.cls-34{fill:#373482;}.cls-36{clip-path:url(#clip-path-4);}.cls-37{fill:#fafafa;}.cls-38{fill:#e8c400;}.cls-39{clip-path:url(#clip-path-5);}.cls-40{stroke-width:1.14px;}</style><clipPath id="clip-path" transform="translate(-462 -179.77)"><rect class="cls-1" x="686.15" y="532.79" width="397.35" height="43.86"/></clipPath><clipPath id="clip-path-2" transform="translate(-462 -179.77)"><path class="cls-2" d="M711,331.26A13.08,13.08,0,1,0,728.33,325,13.08,13.08,0,0,0,711,331.26Z"/></clipPath><clipPath id="clip-path-3" transform="translate(-462 -179.77)"><path class="cls-2" d="M959.1,527.09a13.23,13.23,0,1,0,18.62-1.85A13.23,13.23,0,0,0,959.1,527.09Z"/></clipPath><clipPath id="clip-path-4" transform="translate(-462 -179.77)"><path class="cls-1" d="M742.35,702.22l23.94-61.86a3.46,3.46,0,0,1,6.46,0l23.93,61.86Z"/></clipPath><clipPath id="clip-path-5" transform="translate(-462 -179.77)"><path class="cls-1" d="M1089.93,702.41l23.93-61.86a3.46,3.46,0,0,1,6.46,0l23.94,61.86Z"/></clipPath></defs><title>underConstruction</title><path class="cls-3" d="M1296.11,558.26c9-29.27,11.14-60.42,4.67-90.36-10.13-46.84-42.77-103.55-136.94-128-178.29-46.32-240.19-181.79-407-138.65,0,0-89.5,16.26-131.86,164.35S416.7,516.2,473.84,645.14c9.34,21.08,34.49,44.07,70.6,65.78l676.32-2.27C1267.5,652.46,1282.05,603.85,1296.11,558.26Z" transform="translate(-462 -179.77)"/><path class="cls-4" d="M1136.53,452.35h-25.38V424.6A29.38,29.38,0,0,0,1088.43,396V361.54h-9.34v33.8a29.38,29.38,0,0,0-26.72,29.26v28.57h-25.24V485h-1.7v59.18l-45.88-.33V473.13H927V525H890.09v50.35H845.51V708.59h365.63V540.52h-74.68Z" transform="translate(-462 -179.77)"/><polygon class="cls-4" points="150.93 345.84 150.93 279.58 175.76 279.58 175.76 244.14 185.1 244.14 185.1 279.58 207.98 279.58 207.98 345.84 233.66 345.84 233.66 385.53 274.57 385.53 274.57 250.31 360 250.31 360 528.82 304.33 528.82 280.35 528.82 220.01 528.82 192.14 528.82 119.33 528.82 119.33 345.84 150.93 345.84"/><path class="cls-5" d="M1079.61,707.92l-389.33.31a26.7,26.7,0,0,1-26.72-26.68h0l442.73-.35h0A26.69,26.69,0,0,1,1079.61,707.92Z" transform="translate(-462 -179.77)"/><path class="cls-6" d="M1079.61,698.73l-389.34.3a26.67,26.67,0,0,1-25-17.49h-1.66a26.7,26.7,0,0,0,26.72,26.68l389.33-.31a26.69,26.69,0,0,0,26.68-26.72h-1.66A26.68,26.68,0,0,1,1079.61,698.73Z" transform="translate(-462 -179.77)"/><path class="cls-7" d="M910.08,690.29l-50.3,0a8.94,8.94,0,0,1-8.95-8.93h0l68.18,0h0A8.93,8.93,0,0,1,910.08,690.29Z" transform="translate(-462 -179.77)"/><path class="cls-6" d="M1083.51,681.22l-397.17.31-.19-239.73A24.9,24.9,0,0,1,711,416.88l347.37-.27a24.9,24.9,0,0,1,24.92,24.88Z" transform="translate(-462 -179.77)"/><rect class="cls-8" x="244.92" y="257.68" width="355.8" height="223.21"/><rect class="cls-9" x="245" y="459.55" width="355.8" height="21.34"/><rect class="cls-9" x="244.84" y="257.68" width="355.8" height="10.59"/><polygon class="cls-10" points="363.49 257.73 244.93 376.49 245.01 481.03 245.26 481.03 468.3 257.65 363.49 257.73"/><polygon class="cls-10" points="290.95 481 343.49 480.95 566.52 257.57 513.98 257.62 290.95 481"/><polygon class="cls-10" points="558.96 480.78 600.77 438.9 600.71 359.65 475.18 480.83 558.96 480.78"/><rect class="cls-1" x="224.15" y="353.02" width="397.35" height="43.86"/><g class="cls-11"><polygon class="cls-12" points="273.72 412.27 239.53 412.27 268.96 344.95 303.15 344.95 273.72 412.27"/><polygon class="cls-12" points="346.63 412.27 312.44 412.27 341.87 344.95 376.06 344.95 346.63 412.27"/><polygon class="cls-12" points="419.54 412.27 385.36 412.27 414.78 344.95 448.97 344.95 419.54 412.27"/><polygon class="cls-12" points="492.45 412.27 458.26 412.27 487.69 344.95 521.88 344.95 492.45 412.27"/><polygon class="cls-12" points="565.37 412.27 531.17 412.27 560.6 344.95 594.79 344.95 565.37 412.27"/></g><path class="cls-13" d="M654.25,457.06l-7.77.3-4.55-1.45a4.94,4.94,0,0,0-5.59,1.95l-.57.85,22.71,12.55,4.39-9.42Z" transform="translate(-462 -179.77)"/><path class="cls-13" d="M658.49,471.45,635.6,458.81l.8-1.45a.59.59,0,0,1,.8-.23l22.37,12.36-1.08,2" transform="translate(-462 -179.77)"/><polygon class="cls-2" points="200.87 282.06 206.87 271.68 200.87 260.97 192.25 277.29 200.87 282.06"/><path class="cls-13" d="M709.87,402.12s-32.36-9.29-35.48-.55-22,47.39-22,47.39l14.09,7.36,21.14-36.71,28.43-2.48Z" transform="translate(-462 -179.77)"/><path class="cls-13" d="M683.57,468.84l-6.34,4-4.68.94a4.93,4.93,0,0,0-3.94,4.41l-.09,1,25.94,0-.72-10.37Z" transform="translate(-462 -179.77)"/><path class="cls-13" d="M694.56,479.38l-26.14,0v-1.65a.58.58,0,0,1,.59-.59l25.55,0v2.24" transform="translate(-462 -179.77)"/><polygon class="cls-2" points="231.74 289.08 232.56 271.68 222.23 270.52 221.56 289.07 231.74 289.08"/><path class="cls-14" d="M714.24,400.63,683.74,402s-4.39.24-4.09,10.51.27,51.59.27,51.59l14.64.51,2.81-43.28L727.9,421a16.43,16.43,0,0,0,15-9.68,12,12,0,0,0,.84-7.46Z" transform="translate(-462 -179.77)"/><path class="cls-15" d="M685.3,394.48c0,2.9-2,3.33-4.85,3.34s-5.63-.42-5.63-3.32a5.24,5.24,0,0,1,10.48,0Z" transform="translate(-462 -179.77)"/><path class="cls-15" d="M689,397.44h-6.06a2.88,2.88,0,0,1-2.88-2.87h0a2.89,2.89,0,0,1,2.87-2.88H689a2.87,2.87,0,0,1,2.88,2.87h0A2.89,2.89,0,0,1,689,397.44Z" transform="translate(-462 -179.77)"/><path class="cls-16" d="M688.74,398.05l-2-9.91,24.91-2.71,5-29.1c.5-2.64,4.33-5.92,7-5.42l-.76-.22c2.65.51,5.08,3.58,4.57,6.22l-4.84,34.81a4.87,4.87,0,0,1-3.64,3.82Z" transform="translate(-462 -179.77)"/><path class="cls-17" d="M738.49,351.55a5.2,5.2,0,0,1,1.5.35l.25.09a12.29,12.29,0,0,1,7.36,10.56l-3.89,41.28c-25.8-.23-29.47-3.2-29.47-3.2l2-42.23c.32-4,2.14-7.72,6.68-8.1h0Z" transform="translate(-462 -179.77)"/><path class="cls-2" d="M710.08,397.73c.19,2.88-1.73,3.45-4.62,3.65s-5.64-.05-5.84-2.94a5.24,5.24,0,0,1,10.46-.71Z" transform="translate(-462 -179.77)"/><path class="cls-2" d="M714,400.43l-6.05.42a2.88,2.88,0,0,1-3.06-2.67h0a2.88,2.88,0,0,1,2.67-3.07l6-.42a2.9,2.9,0,0,1,3.07,2.68h0A2.88,2.88,0,0,1,714,400.43Z" transform="translate(-462 -179.77)"/><path class="cls-17" d="M713.75,401.06l-2.67-9.75,27.14-4.37-1.55-25.23c.33-2.67,3.26-5.68,5.93-5.35h0c2.67.32,5.3,3.23,5,5.9l2,30.23a4.87,4.87,0,0,1-3.37,4.06Z" transform="translate(-462 -179.77)"/><path class="cls-18" d="M666.8,367.54l29.61,2.79a2.07,2.07,0,0,1,1.86,1.82l3.11,26.68a2.08,2.08,0,0,1-2.25,2.31L669,398.3a2.09,2.09,0,0,1-1.87-1.86l-2.62-26.64A2.07,2.07,0,0,1,666.8,367.54Z" transform="translate(-462 -179.77)"/><path class="cls-19" d="M665.09,367.38l29.61,2.79a2.08,2.08,0,0,1,1.87,1.82l3.1,26.68a2.07,2.07,0,0,1-2.25,2.31l-30.1-2.84a2.09,2.09,0,0,1-1.87-1.86l-2.61-26.64A2.06,2.06,0,0,1,665.09,367.38Z" transform="translate(-462 -179.77)"/><path class="cls-18" d="M700.56,399l20.23,1.91a1.11,1.11,0,0,1,1,1.22h0a1.12,1.12,0,0,1-1.22,1l-21.45-2Z" transform="translate(-462 -179.77)"/><path class="cls-12" d="M682.06,383.56a3.24,3.24,0,1,1-2.92-3.53A3.23,3.23,0,0,1,682.06,383.56Z" transform="translate(-462 -179.77)"/><polygon class="cls-16" points="273.73 187.75 274.4 206.73 249.08 211.53 271.39 204.56 273.73 187.75"/><path class="cls-2" d="M722.3,349l1.69,4.55a4.47,4.47,0,0,0,3.87,2.88h0a4.45,4.45,0,0,0,4.4-6.18l-3-7Z" transform="translate(-462 -179.77)"/><path class="cls-20" d="M723.81,353.08s8.34-1.58,7.11-8.87-9.07-1.6-9.07-1.6l.77,7.28Z" transform="translate(-462 -179.77)"/><path class="cls-2" d="M711,331.26A13.08,13.08,0,1,0,728.33,325,13.08,13.08,0,0,0,711,331.26Z" transform="translate(-462 -179.77)"/><g class="cls-21"><path class="cls-14" d="M727.65,339.38s-2.06,10.48,5.64,10.71,3.51-19.66,3.51-19.66l-12.19-12.26L706,322.76l1.85,12.06s3,1.57,19-1.07Z" transform="translate(-462 -179.77)"/><polygon class="cls-14" points="258.03 151.41 264.16 160.37 269.44 154.54 258.03 151.41"/></g><path class="cls-2" d="M725.59,337a3.7,3.7,0,1,0,4.91-1.78A3.7,3.7,0,0,0,725.59,337Z" transform="translate(-462 -179.77)"/><path class="cls-1" d="M708.4,334.62s-2.83-10.31,3.86-16.69a13.42,13.42,0,0,1,19.42.92c2.3,2.74,4.14,6.88,4.31,13.09Z" transform="translate(-462 -179.77)"/><path class="cls-22" d="M709.82,334.45l-.08-6.44a3,3,0,0,1,2.89-3.06h0a3,3,0,0,1,3.16,2.72l.64,6.42" transform="translate(-462 -179.77)"/><line class="cls-23" x1="273.99" y1="152.16" x2="243.97" y2="155.05"/><polygon class="cls-2" points="547.28 499.97 554.01 506.49 546.34 510.62 539.77 504.18 547.28 499.97"/><path class="cls-13" d="M961.92,631.05l4.5,19.9a31.55,31.55,0,0,0,5.12,11.32l29.59,26.59,11.71-9.53-25.27-26.76-9.26-35.29Z" transform="translate(-462 -179.77)"/><path class="cls-13" d="M1008.12,690.2l-2.43,7.74-2.77,3.85a4.92,4.92,0,0,0,.12,5.89l.62.81,18.89-17.6-7.55-7.07Z" transform="translate(-462 -179.77)"/><polyline class="cls-13" points="560.74 511.17 541.71 528.91 540.18 527.27 559.22 509.54 560.74 511.17"/><polygon class="cls-2" points="482.56 512.08 480.04 520.51 471.37 518.18 473.9 509.91 482.56 512.08"/><path class="cls-14" d="M956.18,608.86,931.9,690.92l15.32,3.83,13.67-41.14,16.79-26.92a38.64,38.64,0,0,0,2.4-3.76,15.93,15.93,0,0,0,1.92-7.84l-.06-5.34Z" transform="translate(-462 -179.77)"/><path class="cls-13" d="M933.87,697.14,926.21,700l-4.78.17a4.94,4.94,0,0,0-4.62,3.72l-.26,1,25.66,4.22,1-10.37Z" transform="translate(-462 -179.77)"/><polyline class="cls-13" points="480.29 529.48 454.43 525.23 454.79 523.01 480.65 527.26 480.29 529.48"/><polygon class="cls-24" points="460.3 345.73 450.49 361.04 455.19 364.41 465.34 348.21 460.3 345.73"/><path class="cls-25" d="M909.56,500.13s4.53,19,27.5,26.44a1.8,1.8,0,0,1,1.26,1.47c.3,2.19.3,6.94-4.78,8.35a1.79,1.79,0,0,1-1.44-.23c-3.51-2.2-20.8-12.3-37.57-9.39Z" transform="translate(-462 -179.77)"/><path class="cls-24" d="M909.56,500.13s-4.22,18.93-15,26.64C894.53,526.77,896.05,510.18,909.56,500.13Z" transform="translate(-462 -179.77)"/><path class="cls-2" d="M909.29,539.81c-.71,3.49,2.15,7.74,5.64,8.45a6.44,6.44,0,0,0,7.59-5c.71-3.48-2.15-7.73-5.64-8.44A6.42,6.42,0,0,0,909.29,539.81Z" transform="translate(-462 -179.77)"/><polyline class="cls-2" points="465.72 370.27 458.92 363.16 454.48 368.63 465.72 376.87"/><path class="cls-16" d="M926.64,543.47l-7.19,10.69,19.66,18a10,10,0,0,0,3.7.36l26-3.36a7.41,7.41,0,0,0,7.05-7.76h0c-.19-4.09.59-10-3.5-9.82l-30.16,6.2Z" transform="translate(-462 -179.77)"/><path class="cls-17" d="M984.86,568a14.89,14.89,0,0,0-6.69-14.37c-2.16-1.39-4.3-2.32-5.85-2.06-5.17.87-10.5,3.22-12.78,10.21-3.87,11.89-5,47-5,47l27.83,1Z" transform="translate(-462 -179.77)"/><polygon class="cls-16" points="512.59 389.11 520.96 419.86 522.65 393.77 512.59 389.11"/><path class="cls-2" d="M1008.7,629.56c2.63-2.39,2.82-7.52.43-10.15A6.43,6.43,0,0,0,1000,619c-2.63,2.39-2.83,7.52-.44,10.15A6.45,6.45,0,0,0,1008.7,629.56Z" transform="translate(-462 -179.77)"/><polyline class="cls-2" points="534.07 427.88 539.15 440.4 545.96 438.61 541.75 425.32"/><path class="cls-17" d="M996.4,617.32l13.93-3.07-9.45-32.32a10.18,10.18,0,0,0-1.67-3.32L981.87,557c-2.35-3.36-6.3-2.76-9.66-.42h0a7.41,7.41,0,0,0-1.84,10.32L987.08,587Z" transform="translate(-462 -179.77)"/><path class="cls-2" d="M965.81,547.34l.53,4.87a4.5,4.5,0,0,0,3.07,3.8h0a4.51,4.51,0,0,0,5.85-5l-1.18-7.58Z" transform="translate(-462 -179.77)"/><path class="cls-20" d="M966.28,551.68s8.59-.28,9.21-7.73-8.52-3-8.52-3l-1.06,7.33Z" transform="translate(-462 -179.77)"/><path class="cls-2" d="M959.1,527.09a13.23,13.23,0,1,0,18.62-1.85A13.23,13.23,0,0,0,959.1,527.09Z" transform="translate(-462 -179.77)"/><g class="cls-26"><path class="cls-14" d="M973.45,539.21s-4.63,9.76,2.87,11.9,8.33-18.39,8.33-18.39l-8.89-15.06-19.43-.15-1.19,12.29s2.52,2.28,18.89,3.68Z" transform="translate(-462 -179.77)"/><polygon class="cls-14" points="506.03 349.5 509.81 359.82 516.44 355.41 506.03 349.5"/></g><path class="cls-2" d="M972,536.31a3.74,3.74,0,1,0,5.26-.52A3.75,3.75,0,0,0,972,536.31Z" transform="translate(-462 -179.77)"/><path class="cls-1" d="M955.69,530.89s-.65-10.8,7.3-15.72a13.57,13.57,0,0,1,19,5c1.7,3.2,2.67,7.67,1.54,13.85Z" transform="translate(-462 -179.77)"/><path class="cls-27" d="M957.13,531l1.27-6.39a3.07,3.07,0,0,1,3.49-2.43h0a3.07,3.07,0,0,1,2.56,3.36l-.7,6.49" transform="translate(-462 -179.77)"/><line class="cls-28" x1="521.56" y1="354.21" x2="491.25" y2="350.8"/><line class="cls-29" x1="706.55" y1="432.65" x2="675.19" y2="463.57"/><line class="cls-29" x1="706.55" y1="399.62" x2="675.19" y2="430.53"/><line class="cls-29" x1="706.55" y1="366.58" x2="675.19" y2="397.5"/><line class="cls-29" x1="706.55" y1="333.54" x2="675.19" y2="364.46"/><line class="cls-29" x1="706.55" y1="300.51" x2="675.19" y2="331.42"/><line class="cls-29" x1="706.55" y1="267.47" x2="675.19" y2="298.39"/><line class="cls-29" x1="706.55" y1="234.43" x2="675.19" y2="265.35"/><line class="cls-29" x1="706.55" y1="201.4" x2="675.19" y2="232.31"/><line class="cls-29" x1="706.55" y1="168.36" x2="675.19" y2="199.28"/><line class="cls-29" x1="706.55" y1="135.33" x2="675.19" y2="166.24"/><line class="cls-29" x1="706.55" y1="102.29" x2="675.19" y2="133.2"/><line class="cls-29" x1="675.19" y1="430.53" x2="706.55" y2="430.53"/><line class="cls-29" x1="675.19" y1="397.5" x2="706.55" y2="397.5"/><line class="cls-29" x1="675.19" y1="364.46" x2="706.55" y2="364.46"/><line class="cls-29" x1="675.19" y1="331.42" x2="706.55" y2="331.42"/><line class="cls-29" x1="675.19" y1="298.39" x2="706.55" y2="298.39"/><line class="cls-29" x1="675.19" y1="265.35" x2="706.55" y2="265.35"/><line class="cls-29" x1="675.19" y1="232.31" x2="706.55" y2="232.31"/><line class="cls-29" x1="675.19" y1="199.28" x2="706.55" y2="199.28"/><line class="cls-29" x1="675.19" y1="166.24" x2="706.55" y2="166.24"/><line class="cls-29" x1="675.19" y1="133.2" x2="706.55" y2="133.2"/><line class="cls-30" x1="675.19" y1="472.52" x2="675.19" y2="107.57"/><line class="cls-30" x1="706.55" y1="472.52" x2="706.55" y2="107.57"/><rect class="cls-14" x="659.02" y="463.57" width="62.45" height="64.89"/><rect class="cls-5" x="663.57" y="45.78" width="53.5" height="61.79" rx="4.3"/><path class="cls-31" d="M668.44,60.68h25.65a3.26,3.26,0,0,1,3.26,3.26V86.33a3.26,3.26,0,0,1-3.26,3.26H668.44a0,0,0,0,1,0,0V60.68A0,0,0,0,1,668.44,60.68Z"/><line class="cls-32" x1="468.3" y1="110.94" x2="493.38" y2="183.82"/><line class="cls-32" x1="450.85" y1="102.29" x2="401.93" y2="168.36"/><rect class="cls-1" x="848.32" y="324.69" width="116.37" height="116.37" rx="6.84" transform="translate(691.02 1155.78) rotate(-127.41)"/><rect class="cls-33" x="858.9" y="335.27" width="95.22" height="95.22" rx="5.59" transform="translate(691.02 1155.78) rotate(-127.41)"/><path class="cls-14" d="M910.8,407.54c-1.31,9.82-16.2,7.83-14.89-2S912.12,397.64,910.8,407.54Zm6.4-54.82L911.36,394l-12.52-1.67c1.85-13.87,3.39-27.36,5.25-41.32Z" transform="translate(-462 -179.77)"/><circle class="cls-14" cx="461.14" cy="96.12" r="20.97"/><path class="cls-34" d="M938,275.89a14.83,14.83,0,1,1-14.83-14.83A14.83,14.83,0,0,1,938,275.89Z" transform="translate(-462 -179.77)"/><line class="cls-29" x1="543.38" y1="1.32" x2="543.38" y2="45.78"/><line class="cls-29" x1="503.51" y1="1.32" x2="503.51" y2="45.78"/><line class="cls-29" x1="583.11" y1="1.32" x2="583.11" y2="45.78"/><line class="cls-29" x1="627.26" y1="1.32" x2="627.26" y2="45.78"/><line class="cls-29" x1="668.44" y1="1.32" x2="668.44" y2="45.78"/><line class="cls-29" x1="711.14" y1="1.32" x2="711.14" y2="45.78"/><line class="cls-29" x1="753.08" y1="1.32" x2="753.08" y2="45.78"/><line class="cls-29" x1="501.44" y1="45.78" x2="543.38" y2="1.32"/><line class="cls-29" x1="543.38" y1="45.78" x2="585.32" y2="1.32"/><line class="cls-29" x1="585.32" y1="45.78" x2="627.26" y2="1.32"/><line class="cls-29" x1="627.26" y1="45.78" x2="669.2" y2="1.32"/><line class="cls-29" x1="669.2" y1="45.78" x2="711.14" y2="1.32"/><line class="cls-29" x1="711.14" y1="45.78" x2="753.08" y2="1.32"/><polygon class="cls-35" points="461.14 45.78 803.09 45.78 757.05 1.32 496.51 1.32 461.14 45.78"/><line class="cls-35" x1="461.14" y1="45.78" x2="461.14" y2="96.12"/><path class="cls-1" d="M742.35,702.22l23.94-61.86a3.46,3.46,0,0,1,6.46,0l23.93,61.86Z" transform="translate(-462 -179.77)"/><g class="cls-36"><rect class="cls-37" x="285.9" y="473.88" width="42.5" height="13.13"/><rect class="cls-37" x="283.58" y="498.7" width="48.07" height="13.13"/></g><rect class="cls-38" x="275.98" y="522.45" width="63.35" height="5.21"/><path class="cls-1" d="M1089.93,702.41l23.93-61.86a3.46,3.46,0,0,1,6.46,0l23.94,61.86Z" transform="translate(-462 -179.77)"/><g class="cls-39"><rect class="cls-37" x="633.47" y="474.08" width="42.5" height="13.13"/><rect class="cls-37" x="631.15" y="498.89" width="48.07" height="13.13"/></g><rect class="cls-38" x="623.55" y="522.64" width="63.35" height="5.21"/><circle class="cls-6" cx="612.35" cy="598.82" r="49.71" transform="translate(-532.14 936.5) rotate(-81.53)"/><line class="cls-40" x1="150.35" y1="401.33" x2="150.35" y2="527.66"/><line class="cls-40" x1="131.02" y1="403.9" x2="150.35" y2="425.58"/><path class="cls-40" d="M629.49,604.16c-1.38,1.38-17.14,17.8-17.14,17.8" transform="translate(-462 -179.77)"/><line class="cls-40" x1="0.73" y1="528.88" x2="834.53" y2="528.88"/></svg>